<mxfile host="65bd71144e">
    <diagram id="PNN3YCiBCbaC2L3InYVp" name="Page-1">
        <mxGraphModel dx="490" dy="475" grid="1" gridSize="10" guides="1" tooltips="1" connect="1" arrows="1" fold="1" page="1" pageScale="1" pageWidth="850" pageHeight="1100" math="0" shadow="0">
            <root>
                <mxCell id="0"/>
                <mxCell id="1" parent="0"/>
                <mxCell id="2" value="&lt;h2&gt;&lt;font color=&quot;#00cc00&quot;&gt;state&lt;/font&gt;&lt;/h2&gt;" style="whiteSpace=wrap;html=1;aspect=fixed;strokeColor=#FFFFFF;fillColor=#FFFFFF;" vertex="1" parent="1">
                    <mxGeometry x="10" y="100" width="190" height="190" as="geometry"/>
                </mxCell>
                <mxCell id="3" value="" style="whiteSpace=wrap;html=1;aspect=fixed;fillColor=#FFFFFF;" vertex="1" parent="1">
                    <mxGeometry x="285" y="100" width="190" height="190" as="geometry"/>
                </mxCell>
                <mxCell id="4" value="&lt;h1&gt;&lt;font color=&quot;#ff00ff&quot;&gt;component&lt;/font&gt;&lt;/h1&gt;" style="text;html=1;align=center;verticalAlign=middle;resizable=0;points=[];autosize=1;strokeColor=none;fillColor=none;" vertex="1" parent="1">
                    <mxGeometry x="10" y="40" width="150" height="70" as="geometry"/>
                </mxCell>
                <mxCell id="5" value="&lt;h2&gt;browser chrome&lt;/h2&gt;" style="text;html=1;align=center;verticalAlign=middle;resizable=0;points=[];autosize=1;strokeColor=none;fillColor=none;fontColor=#FF00FF;" vertex="1" parent="1">
                    <mxGeometry x="300" y="45" width="160" height="60" as="geometry"/>
                </mxCell>
                <mxCell id="6" value="&lt;h2&gt;&lt;font color=&quot;#cc0066&quot;&gt;Time+++++&lt;/font&gt;&lt;/h2&gt;" style="rounded=1;whiteSpace=wrap;html=1;strokeColor=#FFFFFF;fontColor=#00CC00;fillColor=#FFCCE6;" vertex="1" parent="1">
                    <mxGeometry x="10" y="210" width="190" height="60" as="geometry"/>
                </mxCell>
                <mxCell id="8" value="Render&amp;nbsp;&lt;br&gt;&lt;h2&gt;{Time}&lt;/h2&gt;" style="rounded=1;whiteSpace=wrap;html=1;strokeColor=#FFFFFF;fontColor=#CC0066;fillColor=#FFCCE6;" vertex="1" parent="1">
                    <mxGeometry x="300" y="139" width="160" height="140" as="geometry"/>
                </mxCell>
            </root>
        </mxGraphModel>
    </diagram>
</mxfile>